# xmcd
# 
# Track frame offsets:
#     150
#     25737
#     47142
#     66437
#     86393
#     108184
#     140824
#     160894
#     183909
#     203415
#     220687
#     232522
#     258540
# 
# Disc length: 3704
# 
# Revision: 1
# Processed by: cddbd v1.5.2PL0 Copyright (c) Steve Scherf et al.
# Submitted via: BonkEnc v1.0
# 
DISCID=a70e760d
DTITLE=Cristina Mel-playback - Eternamente
DYEAR=0
DGENRE=Gospel and Religious
TTITLE0=Casa de Oração
TTITLE1=Mova a Mão de Deus
TTITLE2=Veleu a Pena
TTITLE3=Perfume Precioso
TTITLE4=Ele
TTITLE5=Autor da Minha Fé
TTITLE6=Creio em Ti
TTITLE7=Deus da Vitória
TTITLE8=Escrevi
TTITLE9=Deus tem um milagre pra você
TTITLE10=Fogo sobrenatural
TTITLE11=Livre do vale
TTITLE12=Eternamente Deus
EXTD=
EXTT0=
EXTT1=
EXTT2=
EXTT3=
EXTT4=
EXTT5=
EXTT6=
EXTT7=
EXTT8=
EXTT9=
EXTT10=
EXTT11=
EXTT12=
PLAYORDER=
